<?xml version="1.0" encoding="UTF-8"?>
<svg width="300" height="250" xmlns:cc="http://creativecommons.org/ns#" xmlns:dc="http://purl.org/dc/elements/1.1/" xmlns:pdf="http://ns.adobe.com/pdf/1.3/" xmlns:rdf="http://www.w3.org/1999/02/22-rdf-syntax-ns#" space="preserve" version="1.0" viewBox="0 0 289.33 253" xmlns:xap="http://ns.adobe.com/xap/1.0/" xmlns="http://www.w3.org/2000/svg">
<g transform="matrix(1.012 0 0 1.012 180.09 42.504)" stroke-width="2">
<circle transform="translate(70 -15)" cx="-105" cy="-2" r="20" fill="none" stroke="currentColor"/>
<text x="-42.312504" y="-8.09375" fill="currentColor" font-family="'DejaVu Sans'" style="line-height:0%" space="preserve"><tspan x="-42.312504" y="-8.09375" font-size="24px" style="line-height:1.25">8</tspan></text>
</g>
<g transform="matrix(1.012 0 0 1.012 104.19 98.164)" stroke-width="2">
<circle transform="translate(70 -15)" cx="-105" cy="-2" r="20" fill="none" stroke="currentColor"/>
<text x="-42.312504" y="-8.09375" fill="currentColor" font-family="'DejaVu Sans'" style="line-height:0%" space="preserve"><tspan x="-42.312504" y="-8.09375" font-size="24px" style="line-height:1.25">3</tspan></text>
</g>
<g transform="matrix(1.012 0 0 1.012 255.99 98.164)" stroke-width="2">
<circle transform="translate(70 -15)" cx="-105" cy="-2" r="20" fill="none" stroke="currentColor"/>
<text x="-50.75" y="-8.09375" fill="currentColor" font-family="'DejaVu Sans'" style="line-height:0%" space="preserve"><tspan x="-50.75" y="-8.09375" font-size="24px" style="line-height:1.25">10</tspan></text>
</g>
<g transform="matrix(1.012 0 0 1.012 53.587 174.06)" stroke-width="2">
<circle transform="translate(70 -15)" cx="-105" cy="-2" r="20" fill="none" stroke="currentColor"/>
<text x="-42.312504" y="-8.09375" fill="currentColor" font-family="'DejaVu Sans'" style="line-height:0%" space="preserve"><tspan x="-42.312504" y="-8.09375" font-size="24px" style="line-height:1.25">1</tspan></text>
</g>
<g transform="matrix(1.012 0 0 1.012 154.79 174.06)" stroke-width="2">
<circle transform="translate(70 -15)" cx="-105" cy="-2" r="20" fill="none" stroke="currentColor"/>
<text x="-42.312504" y="-8.09375" fill="currentColor" font-family="'DejaVu Sans'" style="line-height:0%" space="preserve"><tspan x="-42.312504" y="-8.09375" font-size="24px" style="line-height:1.25">6</tspan></text>
</g>
<g transform="matrix(1.012 0 0 1.012 306.59 174.06)" stroke-width="2">
<circle transform="translate(70 -15)" cx="-105" cy="-2" r="20" fill="none" stroke="currentColor"/>
<text x="-50.75" y="-8.09375" fill="currentColor" font-family="'DejaVu Sans'" style="line-height:0%" space="preserve"><tspan x="-50.75" y="-8.09375" font-size="24px" style="line-height:1.25">14</tspan></text>
</g>
<g transform="matrix(1.012 0 0 1.012 114.31 244.9)" stroke-width="2">
<circle transform="translate(70 -15)" cx="-105" cy="-2" r="20" fill="none" stroke="currentColor"/>
<text x="-42.312504" y="-8.09375" fill="currentColor" font-family="'DejaVu Sans'" style="line-height:0%" space="preserve"><tspan x="-42.312504" y="-8.09375" font-size="24px" style="line-height:1.25">4</tspan></text>
</g>
<g transform="matrix(1.012 0 0 1.012 186.99 244.74)" stroke-width="2">
<circle transform="translate(78.174 -14.842)" cx="-105" cy="-2" r="20" fill="none" stroke="currentColor"/>
<text x="-34.312504" y="-8.09375" fill="currentColor" font-family="'DejaVu Sans'" style="line-height:0%" space="preserve"><tspan x="-34.312504" y="-8.09375" font-size="24px" style="line-height:1.25">7</tspan></text>
</g>
<g transform="matrix(1.012 0 0 1.012 255.99 244.9)" stroke-width="2">
<circle transform="translate(70 -15)" cx="-105" cy="-2" r="20" fill="none" stroke="currentColor"/>
<text x="-50.062504" y="-8.34375" fill="currentColor" font-family="'DejaVu Sans'" style="line-height:0%" space="preserve"><tspan x="-50.062504" y="-8.34375" font-size="24px" style="line-height:1.25">13</tspan></text>
</g>
<g transform="rotate(233.29 124.62 83.805)" fill="currentColor" stroke="currentColor" stroke-width="2">
<path d="m159.86 60.696-3.048 14.192h6.096z"/>
<path d="m159.85 70.84v43.936"/>
</g>
<g transform="matrix(.59774 -.80169 -.80169 -.59774 156.41 233.81)" fill="currentColor" stroke="currentColor" stroke-width="2">
<path d="m159.86 60.696-3.048 14.192h6.096z"/>
<path d="m159.85 70.84v43.936"/>
</g>
<g transform="rotate(213.22 106.81 119.54)" fill="currentColor" stroke="currentColor" stroke-width="2">
<path d="m159.86 60.696-3.048 14.192h6.096z"/>
<path d="m159.85 70.84v39.919"/>
</g>
<g transform="matrix(.83655 -.5479 -.5479 -.83655 7.2566 278.15)" fill="currentColor" stroke="currentColor" stroke-width="2">
<path d="m159.86 60.696-3.048 14.192h6.096z"/>
<path d="m159.85 70.84v39.919"/>
</g>
<g transform="matrix(.83655 -.5479 -.5479 -.83655 159.56 277.89)" fill="currentColor" stroke="currentColor" stroke-width="2">
<path d="m159.86 60.696-3.048 14.192h6.096z"/>
<path d="m159.85 70.84v39.919"/>
</g>
<g transform="rotate(213.22 218.72 125.05)" fill="currentColor" stroke="currentColor" stroke-width="2">
<path d="m159.86 60.696-3.048 14.192h6.096z"/>
<path d="m159.85 70.84v36.278"/>
</g>
<g transform="matrix(.87594 -.48242 -.48242 -.87594 39.63 340.2)" fill="currentColor" stroke="currentColor" stroke-width="2">
<path d="m159.86 60.696-3.048 14.192h6.096z"/>
<path d="m159.85 70.84v31.131"/>
</g>
<g transform="rotate(208.84 143.87 145.08)" fill="currentColor" stroke="currentColor" stroke-width="2">
<path d="m159.86 60.696-3.048 14.192h6.096z"/>
<path d="m159.85 70.84v31.131"/>
</g>
</svg>
